<svg xmlns="http://www.w3.org/2000/svg" width="667.45599" height="581.06539" viewBox="0 0 667.45599 581.06539" xmlns:xlink="http://www.w3.org/1999/xlink"><path d="M574.95599,147h-82c-6.89258,0-12.5-5.60742-12.5-12.5V52.5c0-6.89258,5.60742-12.5,12.5-12.5h82c6.89258,0,12.5,5.60742,12.5,12.5v82c0,6.89258-5.60742,12.5-12.5,12.5Zm-82-105c-5.79899,0-10.5,4.70101-10.5,10.5v82c0,5.79899,4.70101,10.5,10.5,10.5h57.43898c19.36367,0,35.06102-15.69735,35.06102-35.06102V52.5c0-5.79899-4.70101-10.5-10.5-10.5h-82Z" fill="#f2f2f2"/><path d="M574.95599,147h-82c-6.89258,0-12.5-5.60742-12.5-12.5V52.5c0-6.89258,5.60742-12.5,12.5-12.5h82c6.89258,0,12.5,5.60742,12.5,12.5v82c0,6.89258-5.60742,12.5-12.5,12.5Z" fill="#f39540"/><circle cx="533.45599" cy="11" r="11" fill="#f2f2f2"/><path d="M467.4839,308.7138h-82c-6.89258,0-12.5-5.60742-12.5-12.5v-82c0-6.89258,5.60742-12.5,12.5-12.5h82c6.89258,0,12.5,5.60742,12.5,12.5v82c0,6.89258-5.60742,12.5-12.5,12.5Zm-82-105c-5.79899,0-10.5,4.70101-10.5,10.5v82c0,5.79899,4.70101,10.5,10.5,10.5h.0001c51.08628,0,92.4999-41.41361,92.4999-92.4999v-.0001c0-5.79899-4.70101-10.5-10.5-10.5h-82Z" fill="#f2f2f2"/><circle cx="425.9839" cy="172.7138" r="11" fill="#f2f2f2"/><path d="M429.33676,249.69081c-3.68652,.97973-7.97658-1.51841-8.75477-5.31546-.80855-3.94523,2.68362-8.232,6.70057-8.26122,4.07712-.02965,7.60213,4.07778,6.93975,8.08902-.42024,2.54486-1.99196,4.76242-3.41802,6.84358-1.58908,2.31906-3.25087,4.58809-4.9637,6.81715-3.87447,5.04219-8.00893,9.87905-12.13273,14.71705-.87795,1.03-.26286,2.43956,1.06066,2.56066l23.46438,2.14691c1.92188,.17585,1.90993-2.82525,0-3l-23.46438-2.14691,1.06066,2.56066c4.54371-5.33064,9.08174-10.67007,13.31234-16.2555,2.02377-2.67188,4.06665-5.38384,5.80706-8.2521,1.53147-2.52391,2.69287-5.40366,2.25078-8.40333-.76214-5.17126-5.9032-9.325-11.14759-8.57093-5.20819,.74886-9.22544,6.07638-8.47465,11.28684,.82384,5.71745,7.07186,9.53418,12.55716,8.07641,1.86409-.4954,1.07338-3.39005-.79752-2.89284h0Z" fill="#f2f2f2"/><path d="M654.95599,409h-82c-6.89258,0-12.5-5.60742-12.5-12.5v-82c0-6.89258,5.60742-12.5,12.5-12.5h82c6.89258,0,12.5,5.60742,12.5,12.5v82c0,6.89258-5.60742,12.5-12.5,12.5Zm-82-105c-5.79899,0-10.5,4.70101-10.5,10.5v82c0,5.79899,4.70101,10.5,10.5,10.5h.0001c51.08628,0,92.4999-41.41361,92.4999-92.4999v-.0001c0-5.79899-4.70101-10.5-10.5-10.5h-82Z" fill="#f2f2f2"/><circle cx="613.45599" cy="273" r="11" fill="#f2f2f2"/><path d="M604.84647,337.96252c5.13281-2.61,11.9601-.70017,13.83546,5.05779,.80393,2.46833,.53861,5.20196-1.08143,7.28999-1.6602,2.13979-4.24618,3.29329-6.93563,3.02429v3c3.35659,.21709,6.72296,1.42814,9.08343,3.89624,2.14591,2.24376,3.22763,5.65035,2.35903,8.68493-.84205,2.94181-3.65969,5.12915-6.71218,5.28764-3.04238,.15796-6.05644-1.79139-7.19739-4.61589-.71389-1.76729-3.61697-.9951-2.89284,.79752,2.5544,6.32357,10.34443,8.90958,15.94053,4.70647,5.71026-4.28886,5.12997-12.72916,.2059-17.40063-2.91694-2.76729-6.82933-4.10035-10.78648-4.35627-1.94635-.12588-1.89092,2.81087,0,3,3.57302,.35737,7.09776-1.37624,9.27196-4.1805,2.185-2.8182,2.73373-6.55083,1.63794-9.9313-2.48559-7.66795-11.34867-10.35612-18.24245-6.85068-1.72137,.87531-.2048,3.46449,1.51416,2.59041h0Z" fill="#f2f2f2"/><path d="M157.95599,416H75.95599c-6.89258,0-12.5-5.60742-12.5-12.5v-82c0-6.89258,5.60742-12.5,12.5-12.5h82c6.89258,0,12.5,5.60742,12.5,12.5v82c0,6.89258-5.60742,12.5-12.5,12.5Z" fill="#3f3d56"/><g><path d="M127.00805,322.55375c5.00379-2.61498,6.94075-8.79099,4.32614-13.79484-.26323-.50369-.57118-.9674-.90156-1.40725l13.59132-91.35167-20.09242,.12875-8.38426,89.67841c-3.47395,3.03586-4.56525,8.151-2.33408,12.42059,2.61462,5.00385,8.79078,6.94064,13.79487,4.32601Z" fill="#ffb6b6"/><path d="M130.29824,152.23846s-6.00525-1.63392-6.87811,11.52301c-.69878,10.53313-11.19445,74.70821-8.25983,89.06764-3.74976,1.7278-6.01052,5.81955-5.23238,10.06773l30.33969-2.72661c4.16192-5.50575,4.18355-11.67306,1.79855-12.96159l2.4364-18.91001,14.08281-61.59991-23.92528-13.35626-4.36185-1.104Z" fill="#e6e6e6"/></g><g><polygon points="150.19708 556.69781 161.72662 556.69728 167.21156 512.22598 150.19505 512.22676 150.19708 556.69781" fill="#ffb6b6"/><path d="M165.56318,557.73564v-7.81625l-3.03103,.18517-12.33831,.73094-2.85555,.17542-2.18308,26.17759-.11695,1.40341h8.18654l.26316-1.39366,1.18897-6.33485,3.06999,6.33485,.67247,1.39366h21.70418c1.29616,0,2.47544-.50681,3.34284-1.34494,.94533-.88691,1.53012-2.14411,1.53012-3.53777,.91612-4.27847-17.13334-13.52734-19.43337-15.97358Z" fill="#2f2e41"/></g><g><polygon points="99.57387 543.45527 112.45599 546 124.45599 505 111.52498 500.62018 99.57387 543.45527" fill="#ffb6b6"/><path d="M114.09555,548.58506l2.10088-7.52861-2.96926-.63633-12.08073-2.61228-2.79762-.59856-9.13883,24.6275-.48986,1.32034,7.88528,2.2004,.62807-1.27164,2.84792-5.78215,1.25432,6.92689,.27313,1.52312,20.90548,5.83372c1.24847,.34839,2.52057,.1772,3.58133-.39695,1.14893-.60019,2.05011-1.65394,2.4247-2.99632,2.03239-3.87479-12.86693-17.6347-14.42481-20.60912Z" fill="#2f2e41"/></g><path d="M207.30039,306.07059l.29697-3.11895-12.82393-35.15788-54.65064,10.5379s-28.16648,34.69834-21.903,57.66443c1.69865,6.22839,5.3293,79.64301,4.23621,82.0039-25.17395,54.37159-18.14116,92.72485-18.14116,92.72485,0,0,7.95632,6.93867,21.58517,10.37782,3.55599,.89733,30.5966-121.07988,30.5966-121.07988,0,0-1.19114,7.6121-2.85224,19.18556-5.13173,35.75456-13.19255,107.7339-6.03064,111.46053,9.48016,4.93291,18.54936,4.01802,18.54936,4.01802,0,0,29.55639-88.80863,23.29291-109.6869" fill="#2f2e41"/><path d="M180.45599,155l-16.87914-18.15289h0l-12.83089-.74604-17.28997,17.89893-6.41086,18.08141v.00003c-7.17639,17.43205-8.81781,36.64947-4.70167,55.04605l9.84757,44.01253s1.51673,5.18643-2.45783,5.8094c-3.97455,.62297-3.498,8.26799-3.498,8.26799,0,0,.80937,6.62574-3.05005,7.20921-3.85943,.58347-14.15068,.58347-5.14536,12.16175,9.00533,11.57828,80.23195-32.21272,80.23195-32.21272l.34517-54.28177s20.06276-26.94681-1.54329-42.3797l-16.61763-20.71418Z" fill="#e6e6e6"/><path d="M222.95599,346h-82c-6.89258,0-12.5-5.60742-12.5-12.5v-82c0-6.89258,5.60742-12.5,12.5-12.5h82c6.89258,0,12.5,5.60742,12.5,12.5v82c0,6.89258-5.60742,12.5-12.5,12.5Z" fill="#f39540"/><g><path d="M210.50218,305.67255c3.77758-4.19594,3.43894-10.6597-.75668-14.43746-.42237-.38026-.87272-.70745-1.33575-1.00445l-19.12248-90.35587-18.78591,7.12823,23.419,86.97162c-2.19702,4.05683-1.4358,9.23141,2.14436,12.45474,4.19562,3.77776,10.65946,3.43891,14.43745-.75681Z" fill="#ffb6b6"/><path d="M172.57415,154.52546s5.66968-2.5666,8.62027,10.28489c2.36216,10.2886,22.91318,71.98346,22.29549,86.62667,3.97651,1.11058,6.8582,4.79151,6.76438,9.10935l-30.38777,2.12471c-4.98323-4.77517-5.98371-10.86083-3.83353-12.51167l-5.40766-18.28337-23.68383-58.58285,21.5014-16.98526,4.13125-1.78249Z" fill="#e6e6e6"/></g><path d="M203.24046,562.97601c2.06592,.12937,3.20768-2.43737,1.64468-3.93333l-.1555-.61819c.02047-.04951,.04105-.09897,.06178-.14839,2.08924-4.9818,9.16992-4.94742,11.24139,.04177,1.83859,4.42817,4.17942,8.86389,4.75579,13.54594,.25838,2.0668,.14213,4.17236-.31648,6.20047,4.30807-9.41059,6.57515-19.68661,6.57515-30.02077,0-2.59652-.14213-5.19301-.43275-7.78295-.239-2.11854-.56839-4.2241-.99471-6.31034-2.30575-11.2772-7.29852-22.01825-14.50012-30.98962-3.46197-1.89248-6.34906-4.85065-8.09295-8.39652-.62649-1.27891-1.11739-2.65462-1.34991-4.05618,.39398,.05168,1.48556-5.94866,1.18841-6.3168,.54906-.83317,1.53178-1.24733,2.13144-2.06034,2.98232-4.04341,7.0912-3.33741,9.23621,2.15727,4.58224,2.31266,4.62659,6.14806,1.81495,9.83683-1.78878,2.34682-2.03456,5.52233-3.60408,8.03478,.16151,.20671,.32944,.40695,.4909,.61366,2.96106,3.79788,5.52208,7.88002,7.68104,12.16859-.61017-4.76621,.29067-10.50822,1.82641-14.20959,1.74819-4.21732,5.02491-7.76915,7.91045-11.41501,3.46601-4.37924,10.57337-2.46806,11.18401,3.08332,.00591,.05375,.01166,.10745,.01731,.1612-.4286,.24178-.84849,.49867-1.25864,.76992-2.33949,1.54723-1.53096,5.17386,1.24107,5.60174l.06277,.00967c-.15503,1.54366-.41984,3.07444-.80734,4.57937,3.70179,14.31579-4.29011,19.5299-15.70147,19.76412-.25191,.12916-.49738,.25832-.74929,.38109,1.15617,3.25525,2.07982,6.59447,2.76441,9.97891,.61359,2.99043,1.03991,6.01317,1.27885,9.04888,.29715,3.83006,.27129,7.67959-.05168,11.50323l.01939-.13562c.82024-4.21115,3.10671-8.14462,6.4266-10.87028,4.94561-4.06264,11.93282-5.55869,17.26826-8.82425,2.56833-1.57196,5.85945,.45945,5.41121,3.43708l-.02182,.14261c-.79443,.32289-1.56947,.69755-2.31871,1.11733-.4286,.24184-.84848,.49867-1.25864,.76992-2.33949,1.54729-1.53096,5.17392,1.24107,5.6018l.06282,.00965c.0452,.00646,.08397,.01295,.12911,.01944-1.36282,3.23581-3.26168,6.23922-5.63854,8.82922-2.31463,12.49713-12.25603,13.68282-22.89022,10.04354h-.00648c-1.16259,5.06378-2.86128,10.01127-5.0444,14.72621h-18.02019c-.06463-.20022-.12274-.40692-.18089-.60717,1.6664,.10341,3.34571,.00649,4.98629-.29702-1.33701-1.64059-2.67396-3.29409-4.01097-4.93462-.03229-.0323-.05816-.0646-.08397-.09689-.67817-.8396-1.36282-1.67283-2.04099-2.51246l-.00036-.00102c-.04245-2.57755,.26652-5.14662,.87876-7.63984l.00057-.00035Z" fill="#f2f2f2"/><path d="M61.59139,564.97601c-2.06592,.12937-3.20768-2.43737-1.64468-3.93333l.1555-.61819c-.02047-.04951-.04105-.09897-.06178-.14839-2.08924-4.9818-9.16992-4.94742-11.24139,.04177-1.83859,4.42817-4.17942,8.86389-4.75579,13.54594-.25838,2.0668-.14213,4.17236,.31648,6.20047-4.30807-9.41059-6.57515-19.68661-6.57515-30.02077,0-2.59652,.14213-5.19301,.43275-7.78295,.239-2.11854,.56839-4.2241,.99471-6.31034,2.30575-11.2772,7.29852-22.01825,14.50012-30.98962,3.46197-1.89248,6.34906-4.85065,8.09295-8.39652,.62649-1.27891,1.11739-2.65462,1.34991-4.05618-.39398,.05168-1.48556-5.94866-1.18841-6.3168-.54906-.83317-1.53178-1.24733-2.13144-2.06034-2.98232-4.04341-7.0912-3.33741-9.23621,2.15727-4.58224,2.31266-4.62659,6.14806-1.81495,9.83683,1.78878,2.34682,2.03456,5.52233,3.60408,8.03478-.16151,.20671-.32944,.40695-.4909,.61366-2.96106,3.79788-5.52208,7.88002-7.68104,12.16859,.61017-4.76621-.29067-10.50822-1.82641-14.20959-1.74819-4.21732-5.02491-7.76915-7.91045-11.41501-3.46601-4.37924-10.57337-2.46806-11.18401,3.08332-.00591,.05375-.01166,.10745-.01731,.1612,.4286,.24178,.84849,.49867,1.25864,.76992,2.33949,1.54723,1.53096,5.17386-1.24107,5.60174l-.06277,.00967c.15503,1.54366,.41984,3.07444,.80734,4.57937-3.70179,14.31579,4.29011,19.5299,15.70147,19.76412,.25191,.12916,.49738,.25832,.74929,.38109-1.15617,3.25525-2.07982,6.59447-2.76441,9.97891-.61359,2.99043-1.03991,6.01317-1.27885,9.04888-.29715,3.83006-.27129,7.67959,.05168,11.50323l-.01939-.13562c-.82024-4.21115-3.10671-8.14462-6.4266-10.87028-4.94561-4.06264-11.93282-5.55869-17.26826-8.82425-2.56833-1.57196-5.85945,.45945-5.41121,3.43708l.02182,.14261c.79443,.32289,1.56947,.69755,2.31871,1.11733,.4286,.24184,.84848,.49867,1.25864,.76992,2.33949,1.54729,1.53096,5.17392-1.24107,5.6018l-.06282,.00965c-.0452,.00646-.08397,.01295-.12911,.01944,1.36282,3.23581,3.26168,6.23922,5.63854,8.82922,2.31463,12.49713,12.25603,13.68282,22.89022,10.04354h.00648c1.16259,5.06378,2.86128,10.01127,5.0444,14.72621h18.02019c.06463-.20022,.12274-.40692,.18089-.60717-1.6664,.10341-3.34571,.00649-4.98629-.29702,1.33701-1.64059,2.67396-3.29409,4.01097-4.93462,.03229-.0323,.05816-.0646,.08397-.09689,.67817-.8396,1.36282-1.67283,2.04099-2.51246l.00036-.00102c.04245-2.57755-.26652-5.14662-.87876-7.63984l-.00057-.00035Z" fill="#f2f2f2"/><path d="M0,579.47332c0,.66003,.53003,1.19,1.19006,1.19H254.48004c.65997,0,1.19-.52997,1.19-1.19,0-.65997-.53003-1.19-1.19-1.19H1.19006c-.66003,0-1.19006,.53003-1.19006,1.19Z" fill="#ccc"/><g><circle cx="163.48732" cy="99.79757" r="24.43621" fill="#ffb6b6"/><path d="M186.34389,98.8438c.07001,0,.23999,0,.56,.01001,.92999,.06-.32996,.00995-.56-.01001Z" fill="#2f2e41"/><path d="M199.3539,96.51379c-.17999,.44-.77002,.79999-1.59998,1.09003-1.58002-2.01001-3.63-3.64001-5.97003-4.65002,1.04999,1.71002,1.91003,3.52997,2.54999,5.42999-2.26996,.33002-4.79999,.47003-6.42999,.47998-.38995,0-.72998,0-1-.00995-.39996-.71002-1.03998-1.86005-1.58997-3.05005-.04999,3.25-4.58002,12.83002-4.21002,20.92999,.45001,9.69,.96002,20.26001,.96002,20.26001-1.63,.41003-3.60004,.70001-5.85004,.88-2.47998-4.54999-4.32001-9.64001-5.31-14.79999-.10999-.54999-.20001-1.09998-.28998-1.65002-.21002,.63-.41003,1.27002-.58002,1.92004-.75,2.69995-1.19,5.60999-1.33002,8.63-.09998,1.98999-.06,4.00995,.09003,6.06-12.34003,2.50995-27.59998,2.25-38.64001-3.88,.37-1.01001,.65002-2.04999,.83002-3.11005,.59998-3.47998-4.23999-3.96997-7.46002-1.83997-3.21997-3.22998-5.65997-7.33002-6.97998-12.46002,21.03998-9.22998-1.10999-20.58997,15.14001-36.95996-1.96002-14.22003,37.29999-18.33002,44.89996-5.69,1.66003-1.26001,6.83002-1.20001,9.03003-.28003s3.90002,2.47003,5.56,3.97003c1.10999,1.01996,.59003,3.04999-.12,4.57001,3.48999-1.67004,11.27997,7.00995,8.29999,14.15997Z" fill="#2f2e41"/></g></svg>